<svg xmlns="http://www.w3.org/2000/svg" xmlns:xlink="http://www.w3.org/1999/xlink" width="40" height="40" viewBox="0 0 40 40">
  <defs>
    <clipPath id="clip-path">
      <rect id="Github" width="40" height="40" transform="translate(237.5 112.955)" fill="#fff"/>
    </clipPath>
  </defs>
  <g id="github-intro" transform="translate(-237.5 -112.955)" clip-path="url(#clip-path)">
    <path id="github-2" data-name="github" d="M20,.494a20,20,0,0,0-6.323,38.978c1,.185,1.367-.434,1.367-.962,0-.477-.019-2.052-.027-3.724-5.564,1.21-6.738-2.36-6.738-2.36A5.3,5.3,0,0,0,6.058,29.5c-1.815-1.241.137-1.216.137-1.216A4.2,4.2,0,0,1,9.26,30.345c1.784,3.057,4.679,2.173,5.82,1.662a4.256,4.256,0,0,1,1.27-2.674c-4.443-.506-9.112-2.221-9.112-9.884A7.74,7.74,0,0,1,9.3,14.081a7.185,7.185,0,0,1,.193-5.293s1.68-.537,5.5,2.05a18.964,18.964,0,0,1,10.016,0c3.818-2.588,5.494-2.05,5.494-2.05a7.179,7.179,0,0,1,.2,5.293,7.727,7.727,0,0,1,2.058,5.368c0,7.682-4.679,9.373-9.132,9.868a4.781,4.781,0,0,1,1.356,3.7c0,2.676-.023,4.83-.023,5.489,0,.532.36,1.156,1.374.96A20,20,0,0,0,20,.494Z" transform="translate(237.5 112.955)" fill="#fff"/>
  </g>
</svg>
