<svg xmlns="http://www.w3.org/2000/svg" xmlns:xlink="http://www.w3.org/1999/xlink" width="25" height="25" viewBox="0 0 25 25">
  <defs>
    <clipPath id="clip-path">
      <rect id="Github" width="25" height="25" transform="translate(237.5 112.955)" fill="#fff"/>
    </clipPath>
  </defs>
  <g id="github-sobre" transform="translate(-237.5 -112.955)" clip-path="url(#clip-path)">
    <path id="github-2" data-name="github" d="M12.5.494A12.5,12.5,0,0,0,8.548,24.855c.625.116.854-.271.854-.6,0-.3-.012-1.283-.017-2.327-3.478.756-4.212-1.475-4.212-1.475a3.309,3.309,0,0,0-1.388-1.829c-1.134-.776.086-.76.086-.76a2.627,2.627,0,0,1,1.916,1.288A2.661,2.661,0,0,0,9.426,20.19a2.66,2.66,0,0,1,.794-1.671c-2.777-.316-5.7-1.388-5.7-6.178A4.837,4.837,0,0,1,5.812,8.986a4.491,4.491,0,0,1,.121-3.308s1.05-.336,3.438,1.281a11.853,11.853,0,0,1,6.26,0c2.386-1.617,3.434-1.281,3.434-1.281a4.487,4.487,0,0,1,.123,3.308,4.829,4.829,0,0,1,1.286,3.355c0,4.8-2.924,5.858-5.708,6.168a2.988,2.988,0,0,1,.848,2.315c0,1.673-.015,3.019-.015,3.43,0,.333.225.723.859.6A12.5,12.5,0,0,0,12.5.494Z" transform="translate(237.5 112.769)" fill="#fff"/>
  </g>
</svg>
