<svg xmlns="http://www.w3.org/2000/svg" xmlns:xlink="http://www.w3.org/1999/xlink" width="40" height="40" viewBox="0 0 40 40">
  <defs>
    <clipPath id="clip-path">
      <rect id="Ret칙ngulo_16" data-name="Ret칙ngulo 16" width="40" height="40" transform="translate(950 2369)" fill="#fff" stroke="#707070" stroke-width="1"/>
    </clipPath>
  </defs>
  <g id="Grupo_de_m치scara_14" data-name="Grupo de m치scara 14" transform="translate(-950 -2369)" clip-path="url(#clip-path)">
    <path id="linkedin" d="M36.25,0H3.75A3.761,3.761,0,0,0,0,3.75v32.5A3.761,3.761,0,0,0,3.75,40h32.5A3.761,3.761,0,0,0,40,36.25V3.75A3.761,3.761,0,0,0,36.25,0ZM15,32.5H10V15h5Zm-2.5-20A2.5,2.5,0,1,1,15,10,2.5,2.5,0,0,1,12.5,12.5Zm20,20h-5v-10a2.5,2.5,0,0,0-5,0v10h-5V15h5v3.1c1.031-1.414,2.609-3.1,4.375-3.1,3.109,0,5.625,2.8,5.625,6.25Z" transform="translate(950 2369)" fill="#fff"/>
  </g>
</svg>
