<svg xmlns="http://www.w3.org/2000/svg" xmlns:xlink="http://www.w3.org/1999/xlink" width="40" height="40" viewBox="0 0 40 40">
  <defs>
    <clipPath id="clip-path">
      <rect id="Retângulo_8" data-name="Retângulo 8" width="40" height="40" transform="translate(530 1730)" fill="#fff" stroke="#707070" stroke-width="1"/>
    </clipPath>
  </defs>
  <g id="img-adobexd" transform="translate(-530 -1730)" clip-path="url(#clip-path)">
    <path id="adobexd" d="M32.917.5H7.083A7.077,7.077,0,0,0,0,7.583V32.417A7.077,7.077,0,0,0,7.083,39.5H32.917A7.077,7.077,0,0,0,40,32.417V7.583A7.077,7.077,0,0,0,32.917.5Zm5.4,31.267c0,.008,0,.018,0,.028a6.038,6.038,0,0,1-6.033,6.038H7.717a6.06,6.06,0,0,1-6.05-6.05V8.217a6.06,6.06,0,0,1,6.05-6.05h24.55a6.05,6.05,0,0,1,6.05,6.05h0ZM15.817,18.75l4.667,8.967c.083.133.033.267-.1.267h-2.9a.327.327,0,0,1-.35-.217c-1.067-2.2-2.15-4.4-3.267-6.767h-.033c-1,2.233-2.1,4.583-3.167,6.783a.32.32,0,0,1-.3.183H7.617c-.167,0-.183-.133-.1-.233l4.567-8.7-4.417-8.8a.135.135,0,0,1,.1-.233h2.867a.262.262,0,0,1,.3.183c1.05,2.2,2.117,4.467,3.117,6.683h.033c.967-2.2,2.033-4.483,3.067-6.667.083-.133.133-.217.3-.217h2.683c.133,0,.183.1.1.233ZM21.3,21.467c0-3.883,2.583-6.917,6.683-6.917a7.394,7.394,0,0,1,.867.033V10.167A.167.167,0,0,1,29.017,10H31.65c.133,0,.167.05.167.133v15.3a11.873,11.873,0,0,0,.083,1.633c0,.1-.033.133-.133.183a9.928,9.928,0,0,1-4.267.967c-3.617.017-6.2-2.217-6.2-6.75ZM28.85,17.2a2.521,2.521,0,0,0-.967-.167c-2.1,0-3.567,1.617-3.567,4.3,0,3.067,1.5,4.3,3.383,4.3a3.145,3.145,0,0,0,1.15-.183Z" transform="translate(530 1730)" fill="#ff2bc2"/>
  </g>
</svg>
