<svg xmlns="http://www.w3.org/2000/svg" xmlns:xlink="http://www.w3.org/1999/xlink" width="40" height="40" viewBox="0 0 40 40">
  <defs>
    <clipPath id="clip-path">
      <rect id="Retângulo_5" data-name="Retângulo 5" width="40" height="40" transform="translate(530 1630)" fill="#fff" stroke="#707070" stroke-width="1"/>
    </clipPath>
  </defs>
  <g id="img-mysql" transform="translate(-530 -1630)" clip-path="url(#clip-path)">
    <path id="mysql" d="M27.342,9.46a1.839,1.839,0,0,0-.457.055v.022h.023a3.759,3.759,0,0,0,.357.455c.09.178.167.357.257.533l.023-.025a.62.62,0,0,0,.233-.555c-.067-.078-.077-.157-.133-.233-.067-.112-.21-.167-.3-.252ZM9.617,31.45H8.072c-.05-2.6-.2-5.05-.45-7.35H7.608l-2.35,7.35H4.083L1.75,24.1H1.733q-.258,3.308-.325,7.35H0q.138-4.915.683-9.217H2.6l2.225,6.773h.013l2.245-6.773H8.908q.6,5.037.708,9.217Zm6.7-6.8a20.839,20.839,0,0,1-2.487,7.433,3.312,3.312,0,0,1-2.638,1.788,2.6,2.6,0,0,1-.943-.23v-.823a4.279,4.279,0,0,0,.643.043,1.554,1.554,0,0,0,1.078-.37,1.343,1.343,0,0,0,.492-1.008,6.685,6.685,0,0,0-.383-1.573l-1.69-5.26H11.9l1.212,3.933a5.282,5.282,0,0,1,.342,1.872,25.426,25.426,0,0,0,1.392-5.805Zm20.542,6.8H32.47V22.233h1.475v8.083h2.908Zm-5.533.225-1.693-.833a3.579,3.579,0,0,0,.425-.417,5.645,5.645,0,0,0,1.08-3.755q0-4.575-3.592-4.577a3.417,3.417,0,0,0-2.75,1.162A5.658,5.658,0,0,0,23.713,27a5.464,5.464,0,0,0,.957,3.567,3.276,3.276,0,0,0,2.638,1.025,4.238,4.238,0,0,0,1.208-.163l2.208,1.287Zm-5.487-2.07a5.663,5.663,0,0,1-.562-2.893q0-3.483,2.117-3.483a1.781,1.781,0,0,1,1.628.833,5.638,5.638,0,0,1,.56,2.872q0,3.51-2.117,3.513a1.762,1.762,0,0,1-1.627-.842ZM23.07,28.9a2.442,2.442,0,0,1-.86,1.927,3.379,3.379,0,0,1-2.307.75,4.623,4.623,0,0,1-2.622-.858l.395-.793a4.472,4.472,0,0,0,1.983.547,2.083,2.083,0,0,0,1.305-.367,1.256,1.256,0,0,0,.5-1.025c0-.55-.383-1.017-1.08-1.408-.647-.355-1.938-1.1-1.938-1.1a2.206,2.206,0,0,1-1.053-1.962,2.288,2.288,0,0,1,.783-1.808,2.953,2.953,0,0,1,2.033-.692,4.184,4.184,0,0,1,2.333.683l-.355.793a4.544,4.544,0,0,0-1.773-.383,1.569,1.569,0,0,0-1.09.343,1.141,1.141,0,0,0-.413.873c0,.547.39,1.017,1.11,1.417C20.677,26.2,22,26.955,22,26.955A2.139,2.139,0,0,1,23.07,28.9Zm15.637-9.753a5.111,5.111,0,0,0-2.162.313c-.167.067-.433.067-.457.278.092.088.1.233.183.357a2.556,2.556,0,0,0,.577.678c.233.183.467.36.712.517.433.267.925.425,1.35.693.242.157.488.355.733.522.122.083.2.233.357.287v-.033c-.077-.1-.1-.245-.175-.357-.112-.112-.223-.212-.333-.322a5.372,5.372,0,0,0-1.158-1.125c-.357-.243-1.137-.583-1.283-.992l-.022-.023a4.486,4.486,0,0,0,.767-.177c.378-.1.725-.078,1.117-.177.177-.045.355-.1.533-.157v-.1c-.2-.2-.35-.472-.557-.658a14.78,14.78,0,0,0-1.84-1.372c-.35-.223-.793-.367-1.162-.557-.133-.067-.357-.1-.433-.212A4.3,4.3,0,0,1,35,15.672c-.32-.613-.633-1.292-.912-1.938a11.541,11.541,0,0,0-.567-1.272,11.229,11.229,0,0,0-4.31-4.167,5.429,5.429,0,0,0-1.427-.457c-.278-.013-.557-.033-.833-.045A4.044,4.044,0,0,1,26.43,7.4c-.633-.4-2.273-1.267-2.74-.12-.3.723.445,1.437.7,1.8a5.14,5.14,0,0,1,.567.833c.078.193.1.392.178.593a13.341,13.341,0,0,0,.578,1.5,5.112,5.112,0,0,0,.412.688c.09.122.243.178.278.378a3.244,3.244,0,0,0-.257.833,4.937,4.937,0,0,0,.323,3.75c.178.277.6.89,1.172.655.5-.2.39-.833.533-1.392.033-.133.012-.222.08-.312v.025c.157.313.313.612.457.925A6.271,6.271,0,0,0,30.16,19.05c.267.2.478.547.812.67v-.033h-.025a1.489,1.489,0,0,0-.257-.222,5.739,5.739,0,0,1-.583-.667,14.6,14.6,0,0,1-1.245-2.03c-.183-.35-.337-.727-.483-1.072-.067-.133-.067-.333-.178-.4a4.111,4.111,0,0,0-.533.755,6.367,6.367,0,0,0-.313,1.683c-.045.012-.023,0-.045.023-.357-.087-.478-.457-.612-.767a4.838,4.838,0,0,1-.1-2.975c.078-.233.412-.97.278-1.193-.07-.212-.29-.333-.412-.505a4.13,4.13,0,0,1-.4-.712c-.267-.623-.4-1.313-.69-1.937a5.773,5.773,0,0,0-.557-.855,5.606,5.606,0,0,1-.613-.867c-.055-.122-.133-.323-.045-.457a.19.19,0,0,1,.157-.15c.147-.12.558.037.7.1a5.7,5.7,0,0,1,1.1.557c.157.11.325.322.525.377h.233c.357.078.758.023,1.092.122a7.131,7.131,0,0,1,1.6.767,9.922,9.922,0,0,1,3.475,3.81c.133.257.192.492.313.758.233.55.522,1.105.758,1.637a7.256,7.256,0,0,0,.793,1.5c.167.233.837.355,1.137.477a8.1,8.1,0,0,1,.767.313c.383.233.757.5,1.117.757.183.127.738.405.772.63Z" transform="translate(530 1629.709)" fill="#4479a1"/>
  </g>
</svg>
