<svg xmlns="http://www.w3.org/2000/svg" xmlns:xlink="http://www.w3.org/1999/xlink" width="40" height="40" viewBox="0 0 40 40">
  <defs>
    <clipPath id="clip-path">
      <rect id="Retângulo_4" data-name="Retângulo 4" width="40" height="40" transform="translate(470 1630)" fill="#fff" stroke="#707070" stroke-width="1"/>
    </clipPath>
  </defs>
  <g id="img-java" transform="translate(-470 -1630)" clip-path="url(#clip-path)">
    <path id="java" d="M14.752,30.934s-1.528.89,1.088,1.19a22.8,22.8,0,0,0,8.282-.352,14.517,14.517,0,0,0,2.2,1.077C18.492,36.2,8.6,32.652,14.752,30.934Zm-.958-4.378s-1.713,1.268.9,1.54a32.33,32.33,0,0,0,10.688-.513,4.751,4.751,0,0,0,1.645,1c-9.465,2.768-20.012.217-13.237-2.03Zm8.067-7.43c1.93,2.222-.507,4.222-.507,4.222s4.9-2.53,2.648-5.7c-2.1-2.953-3.713-4.42,5.012-9.48C29.014,8.168,15.32,11.588,21.86,19.125ZM32.217,34.174s1.132.932-1.245,1.652c-4.52,1.37-18.814,1.782-22.782.055-1.427-.622,1.25-1.483,2.09-1.663a5.458,5.458,0,0,1,1.38-.155c-1.588-1.118-10.26,2.2-4.405,3.145,15.967,2.588,29.1-1.167,24.962-3.033ZM15.487,22.017s-7.27,1.727-2.573,2.353a54.673,54.673,0,0,0,9.617-.1c3.01-.253,6.03-.8,6.03-.8a12.676,12.676,0,0,0-1.83.978C19.349,26.392,5.087,25.489,9.193,23.5a13.759,13.759,0,0,1,6.293-1.487Zm13.04,7.29c7.505-3.9,4.035-7.648,1.613-7.142a5.739,5.739,0,0,0-.858.23,1.368,1.368,0,0,1,.642-.5c4.792-1.685,8.477,4.968-1.547,7.6a.651.651,0,0,0,.15-.2ZM24,0s4.157,4.157-3.942,10.55c-6.493,5.128-1.48,8.053,0,11.393-3.79-3.422-6.572-6.43-4.707-9.232C18.092,8.6,25.68,6.6,24,0ZM16.224,39.874c7.2.462,18.265-.255,18.527-3.663,0,0-.5,1.292-5.953,2.318a59.227,59.227,0,0,1-18.229.28s.922.762,5.655,1.065Z" transform="translate(470 1630)" fill="#007396"/>
  </g>
</svg>
