<svg xmlns="http://www.w3.org/2000/svg" xmlns:xlink="http://www.w3.org/1999/xlink" width="40" height="40" viewBox="0 0 40 40">
  <defs>
    <clipPath id="clip-path">
      <rect id="Retângulo_7" data-name="Retângulo 7" width="40" height="40" transform="translate(470 1730)" fill="#fff" stroke="#707070" stroke-width="1"/>
    </clipPath>
  </defs>
  <g id="img-git" transform="translate(-470 -1730)" clip-path="url(#clip-path)">
    <path id="git" d="M39.243,18.217,21.778.753a2.582,2.582,0,0,0-3.647,0L14.513,4.378l4.6,4.6a3.064,3.064,0,0,1,3.878,3.9l4.43,4.433a3.062,3.062,0,1,1-1.84,1.738l-4.148-4.127V25.8a3.067,3.067,0,1,1-3.535.583,3.14,3.14,0,0,1,1.008-.677V14.725a3.068,3.068,0,0,1-1.66-4.017l-4.52-4.542L.75,18.135a2.593,2.593,0,0,0,0,3.648L18.217,39.245a2.575,2.575,0,0,0,3.643,0L39.243,21.861a2.574,2.574,0,0,0,0-3.645Z" transform="translate(470 1730)" fill="#f05032"/>
  </g>
</svg>
