<svg xmlns="http://www.w3.org/2000/svg" xmlns:xlink="http://www.w3.org/1999/xlink" width="25" height="25" viewBox="0 0 25 25">
  <defs>
    <clipPath id="clip-path">
      <rect id="Likedin" width="25" height="25" transform="translate(297.5 112.955)" fill="#fff"/>
    </clipPath>
  </defs>
  <g id="likedin-sobre" transform="translate(-297.5 -112.955)" clip-path="url(#clip-path)">
    <path id="linkedin" d="M22.656,0H2.344A2.351,2.351,0,0,0,0,2.344V22.656A2.351,2.351,0,0,0,2.344,25H22.656A2.351,2.351,0,0,0,25,22.656V2.344A2.351,2.351,0,0,0,22.656,0ZM9.375,20.313H6.25V9.375H9.375ZM7.813,7.813A1.563,1.563,0,1,1,9.375,6.25,1.561,1.561,0,0,1,7.813,7.813Zm12.5,12.5H17.188v-6.25a1.563,1.563,0,0,0-3.125,0v6.25H10.938V9.375h3.125v1.938c.645-.884,1.631-1.938,2.734-1.938a3.725,3.725,0,0,1,3.516,3.906Z" transform="translate(297.5 112.955)" fill="#fff"/>
  </g>
</svg>
